# Blender 4.1.1
# www.blender.org
mtllib track.mtl
o Track
v 0.000000 0.000000 -1.091867
v 0.000000 0.025934 -1.091867
v 0.000000 0.000000 1.091867
v 0.000000 0.025934 1.091867
v 0.412500 0.000000 -1.091867
v 0.412500 0.025934 -1.091867
v 0.412500 0.000000 1.091867
v 0.412500 0.025934 1.091867
vn -1.0000 -0.0000 -0.0000
vn -0.0000 -0.0000 1.0000
vn 1.0000 -0.0000 -0.0000
vn -0.0000 -0.0000 -1.0000
vn -0.0000 -1.0000 -0.0000
vn -0.0000 1.0000 -0.0000
vt 0.250043 0.000087
vt 0.250043 0.250043
vt 0.500000 0.250043
vt 0.500000 0.000087
vt 0.250043 0.500000
vt 0.500000 0.500000
vt 0.250043 0.749957
vt 0.500000 0.749957
vt 0.250043 0.999913
vt 0.500000 0.999913
vt 0.000087 0.500000
vt 0.000087 0.749957
vt 0.000039 0.152994
vt 0.999961 0.152994
vt 0.999961 -0.000000
vt 0.000039 -0.000000
s 1
usemtl Track_DarkEdge_NoAO
f 1/1/1 3/2/1 4/3/1 2/4/1
f 3/2/2 7/5/2 8/6/2 4/3/2
f 7/5/3 5/7/3 6/8/3 8/6/3
f 5/7/4 1/9/4 2/10/4 6/8/4
f 3/11/5 1/12/5 5/7/5 7/5/5
f 8/13/6 6/14/6 2/15/6 4/16/6
